<?xml version="1.0" standalone="no"?><!DOCTYPE svg PUBLIC "-//W3C//DTD SVG 1.1//EN" "http://www.w3.org/Graphics/SVG/1.1/DTD/svg11.dtd"><svg t="1635664363096" class="icon" viewBox="0 0 1024 1024" version="1.1" xmlns="http://www.w3.org/2000/svg" p-id="958" xmlns:xlink="http://www.w3.org/1999/xlink" width="200" height="200"><defs><style type="text/css"></style></defs><path d="M832.2 63.9H184.7c-43.7 0-79.5 35.8-79.5 79.5v737.3c0 43.7 35.8 79.5 79.5 79.5h647.5c43.7 0 79.5-35.8 79.5-79.5V143.4c0.1-43.7-35.7-79.5-79.5-79.5zM411 423.7c-17.2 0-31.2-14-31.2-31.2s14-31.2 31.2-31.2h58.6l-66.3-66.3c-12.1-12.1-12.1-32 0-44.1 12.1-12.1 32-12.1 44.1 0l61 61 61-61c12.1-12.1 32-12.1 44.1 0 12.1 12.1 12.1 32 0 44.1l-66.3 66.3H606c17.2 0 31.2 14 31.2 31.2s-14 31.2-31.2 31.2h-66.3v27.8H606c17.2 0 31.2 14 31.2 31.2s-14 31.2-31.2 31.2h-66.3V560.1c0 17.2-14 31.2-31.2 31.2s-31.2-14-31.2-31.2v-46.2H411c-17.2 0-31.2-14-31.2-31.2s14-31.2 31.2-31.2h66.3v-27.8H411z m244.4 358.6H361.6c-17.2 0-31.2-14-31.2-31.2s14-31.2 31.2-31.2h293.8c17.2 0 31.2 14 31.2 31.2s-14 31.2-31.2 31.2z m0-111.8H361.6c-17.2 0-31.2-14-31.2-31.2s14-31.2 31.2-31.2h293.8c17.2 0 31.2 14 31.2 31.2 0 17.3-14 31.2-31.2 31.2z" fill="#8a8a8a" p-id="959"></path></svg>