<?xml version="1.0" standalone="no"?><!DOCTYPE svg PUBLIC "-//W3C//DTD SVG 1.1//EN" "http://www.w3.org/Graphics/SVG/1.1/DTD/svg11.dtd"><svg t="1636783741159" class="icon" viewBox="0 0 1024 1024" version="1.1" xmlns="http://www.w3.org/2000/svg" p-id="4926" xmlns:xlink="http://www.w3.org/1999/xlink" width="200" height="200"><defs><style type="text/css"></style></defs><path d="M410.624 370.062222v-27.875555l78.904889-82.887111a35.271111 35.271111 0 0 0 0-47.047112 29.297778 29.297778 0 0 0-43.804445 0L378.652444 282.396444 312.547556 212.252444a29.923556 29.923556 0 0 0-43.804445 0 35.271111 35.271111 0 0 0 0 47.047112l78.108445 82.887111v27.875555H283.079111a31.971556 31.971556 0 0 0-31.857778 31.857778c0 17.635556 14.336 31.914667 31.857778 31.914667h63.772445v79.758222c0 17.521778 14.336 31.857778 31.857777 31.857778 17.578667 0 31.914667-14.336 31.914667-31.857778V433.834667h63.715556c17.635556 0 31.914667-14.336 31.914666-31.857778a31.971556 31.971556 0 0 0-31.857778-31.857778H410.624z m343.04 39.879111h-167.082667c-12.856889 0-23.324444-14.336-23.324444-31.857777 0-17.578667 10.467556-31.857778 23.324444-31.857778h167.082667c12.856889 0 23.324444 14.279111 23.324444 31.857778 0 17.521778-10.467556 31.857778-23.324444 31.857777z m0-143.473777h-167.082667c-12.856889 0-23.324444-14.336-23.324444-31.857778 0-17.578667 10.467556-31.914667 23.324444-31.914667h167.082667c12.856889 0 23.324444 14.336 23.324444 31.857778 0 17.578667-10.467556 31.857778-23.324444 31.857778zM227.555556 56.888889h568.888888a113.777778 113.777778 0 0 1 113.777778 113.777778v682.666666a113.777778 113.777778 0 0 1-113.777778 113.777778H227.555556a113.777778 113.777778 0 0 1-113.777778-113.777778V170.666667a113.777778 113.777778 0 0 1 113.777778-113.777778z m0 56.888889a56.888889 56.888889 0 0 0-56.888889 56.888889v682.666666a56.888889 56.888889 0 0 0 56.888889 56.888889h568.888888a56.888889 56.888889 0 0 0 56.888889-56.888889V170.666667a56.888889 56.888889 0 0 0-56.888889-56.888889H227.555556z m526.108444 431.672889h-167.082667c-12.856889 0-23.324444-14.336-23.324444-31.857778 0-17.578667 10.467556-31.857778 23.324444-31.857778h167.082667c12.856889 0 23.324444 14.279111 23.324444 31.857778 0 17.521778-10.467556 31.857778-23.324444 31.857778z m-3.640889 135.509333H278.129778c-14.791111 0-26.908444-14.336-26.908445-31.857778 0-17.578667 12.117333-31.857778 26.908445-31.857778h471.893333c14.791111 0 26.908444 14.279111 26.908445 31.857778 0 17.521778-12.117333 31.857778-26.908445 31.857778z m0 135.509333H278.129778c-14.791111 0-26.908444-14.336-26.908445-31.857777 0-17.578667 12.117333-31.857778 26.908445-31.857778h471.893333c14.791111 0 26.908444 14.279111 26.908445 31.857778 0 17.521778-12.117333 31.857778-26.908445 31.857777z" fill="#999999" p-id="4927"></path></svg>