<?xml version="1.0" standalone="no"?><!DOCTYPE svg PUBLIC "-//W3C//DTD SVG 1.1//EN" "http://www.w3.org/Graphics/SVG/1.1/DTD/svg11.dtd"><svg t="1635755600640" class="icon" viewBox="0 0 1024 1024" version="1.1" xmlns="http://www.w3.org/2000/svg" p-id="7192" xmlns:xlink="http://www.w3.org/1999/xlink" width="200" height="200"><defs><style type="text/css"></style></defs><path d="M297.44 842.72c-110.88 0-200.64-90.24-200.64-200.64s90.24-200.64 200.64-200.64 200.64 90.24 200.64 200.64-89.76 200.64-200.64 200.64z m0-353.28c-84 0-152.64 68.64-152.64 152.64s68.64 152.64 152.64 152.64 152.64-68.64 152.64-152.64-68.16-152.64-152.64-152.64z" fill="#000000" p-id="7193"></path><path d="M619.52 635.84m-277.44 0a277.44 277.44 0 1 0 554.88 0 277.44 277.44 0 1 0-554.88 0Z" fill="#FFFFFF" p-id="7194"></path><path d="M619.52 937.28c-166.08 0-301.44-135.36-301.44-301.44S453.44 334.4 619.52 334.4c166.08 0 301.44 135.36 301.44 301.44s-135.36 301.44-301.44 301.44z m0-554.88c-139.68 0-253.44 113.76-253.44 253.44s113.76 253.44 253.44 253.44 253.44-113.76 253.44-253.44S759.2 382.4 619.52 382.4z" fill="#000000" p-id="7195"></path><path d="M618.08 831.68c-110.88 0-200.64-90.24-200.64-200.64 0-13.44 10.56-24 24-24s24 10.56 24 24c0 84 68.64 152.64 152.64 152.64 13.44 0 24 10.56 24 24s-11.04 24-24 24zM413.6 262.4L313.76 466.4C308 478.4 293.6 483.2 281.6 477.44c-12-5.76-16.8-20.16-11.04-32.16l99.84-203.52c5.76-12 20.16-16.8 32.16-11.04 12 5.76 17.28 20.16 11.04 31.68z" fill="#000000" p-id="7196"></path><path d="M694.4 394.4L260.48 194.24c-12-5.76-17.28-19.68-11.52-31.68 5.76-12 19.68-17.28 31.68-11.52l434.4 200.16c12 5.76 17.28 19.68 11.52 31.68-5.76 11.52-20.16 16.8-32.16 11.52z" fill="#000000" p-id="7197"></path><path d="M678.08 376.64c-7.68 0-15.84-1.44-23.04-4.32-15.36-5.76-26.88-17.28-32.64-32.16-17.76-47.04-14.4-93.12 9.12-134.4 33.12-57.12 96.48-89.28 123.36-94.08 12.96-1.92 25.44 5.76 28.8 18.24 36.48 132-35.52 217.92-76.32 239.04-8.64 5.28-19.2 7.68-29.28 7.68z m64.8-209.28c-21.6 11.04-52.32 32.64-69.6 62.88-16.32 28.32-18.24 60-5.76 93.6 0.48 1.92 2.4 3.36 4.8 4.32 4.32 1.44 9.6 1.44 13.44-0.96 25.92-13.92 72-71.04 57.12-159.84z" fill="#000000" p-id="7198"></path></svg>