<?xml version="1.0" standalone="no"?><!DOCTYPE svg PUBLIC "-//W3C//DTD SVG 1.1//EN" "http://www.w3.org/Graphics/SVG/1.1/DTD/svg11.dtd"><svg t="1636300401160" class="icon" viewBox="0 0 1024 1024" version="1.1" xmlns="http://www.w3.org/2000/svg" p-id="3754" xmlns:xlink="http://www.w3.org/1999/xlink" width="200" height="200"><defs><style type="text/css"></style></defs><path d="M814.362483 450.418759l-2.59531-15.589517c-6.144-36.846345-25.458759-69.896828-54.395586-93.078069-29.14869-23.322483-65.394759-34.833655-102.682483-32.73269l-15.783724 0.865103-2.59531-15.589517c-8.73931-52.365241 5.172966-106.01931 38.170483-147.173517 35.575172-44.402759 88.646621-69.879172 145.584552-69.879172 42.125241 0 83.456 14.530207 116.382897 40.92469 38.859034 31.108414 63.293793 75.493517 68.784552 124.980966 5.490759 49.487448-8.633379 98.145103-39.777103 137.004138-33.015172 41.189517-82.326069 66.489379-135.291586 69.402483L814.362483 450.418759zM669.378207 273.566897c40.465655 1.306483 78.388966 15.271724 110.04469 40.606897 31.408552 25.158621 53.636414 59.709793 63.682207 98.551172 37.199448-5.773241 71.13269-25.193931 94.75531-54.660414 25.229241-31.496828 36.669793-70.938483 32.22069-111.051034-4.431448-40.112552-24.222897-76.093793-55.737379-101.305379-27.083034-21.698207-59.692138-33.174069-94.313931-33.174069-46.168276 0-89.193931 20.638897-118.042483 56.637793C678.417655 198.62069 666.871172 235.979034 669.378207 273.566897z" p-id="3755"></path><path d="M444.945655 815.774897c-19.350069 0-68.872828-42.407724-76.8-53.777655-5.808552-8.333241-5.049379-15.377655-3.407448-19.826759 34.957241-94.278621 136.73931-252.345379 180.506483-307.005793 29.095724-36.369655 50.034759-57.520552 65.836138-66.59531 5.967448-3.425103 13.912276-5.102345 24.258207-5.102345 23.357793 0 59.780414 9.021793 84.497655 28.830897 34.904276 27.948138 58.226759 74.398897 48.957793 97.474207-6.232276 15.448276-23.834483 38.36469-42.866759 62.481655l-5.508414 7.009103c-43.078621 55.366621-176.251586 193.606621-264.580414 253.245793l-4.466759 3.019034L444.945655 815.774897zM401.019586 746.213517c9.392552 9.25131 30.861241 25.688276 42.089931 32.203034 85.362759-60.062897 208.737103-188.486621 249.485241-240.869517l5.632-7.168c11.528828-14.618483 32.979862-41.807448 37.835034-53.812966 0.088276-4.696276-10.27531-34.286345-38.276414-56.726069-17.107862-13.682759-44.932414-21.080276-62.42869-21.080276-5.261241 0-7.256276 0.706207-7.273931 0.723862-7.326897 4.254897-23.463724 18.025931-55.278345 57.750069C531.544276 508.751448 437.371586 654.494897 401.019586 746.213517z" p-id="3756"></path><path d="M776.968828 486.594207c-14.212414 0-25.63531-8.139034-29.14869-20.727172-5.420138-19.456-14.212414-42.107586-38.43531-62.746483-8.845241-7.538759-28.19531-17.761103-70.055724-23.763862-11.264-1.606621-20.073931-7.415172-24.823172-16.331034-5.490759-10.27531-4.908138-23.393103 1.588966-36.934621 0.564966-1.165241 0.971034-2.224552 1.359448-3.213241 2.259862-5.66731 6.956138-17.478621 22.863448-19.862069 41.754483-6.320552 81.249103 5.808552 120.249379 37.058207 35.222069 28.212966 55.755034 61.387034 61.033931 98.568828 2.065655 14.512552-4.025379 28.848552-15.872 37.41131l-2.01269 1.447724C795.542069 483.345655 786.025931 486.594207 776.968828 486.594207zM646.585379 344.681931c40.077241 6.091034 67.866483 16.384 85.698207 31.567448 29.025103 24.734897 41.065931 52.029793 47.845517 74.257655 0.900414-0.370759 1.889103-0.918069 2.966069-1.677241l1.995034-1.447724c1.129931-0.812138 1.747862-2.295172 1.536-3.760552-3.972414-28.018759-20.179862-53.583448-48.145655-75.987862-29.784276-23.852138-58.262069-33.633103-88.805517-30.225655-0.512 1.271172-1.112276 2.612966-1.783172 4.025379C647.291586 342.686897 646.885517 343.781517 646.585379 344.681931z" p-id="3757"></path><path d="M404.109241 851.685517c-14.618483 0-30.084414-5.66731-42.407724-15.554207-23.463724-18.785103-29.801931-43.04331-25.758897-57.608828 6.885517-24.876138 25.317517-28.19531 32.909241-28.442483l8.103724-0.300138 5.508414 5.967448c0.123586 0.123586 11.670069 12.588138 24.840828 22.210207 17.672828 12.905931 27.648 17.92 27.753931 17.972966l4.555034 2.259862 2.718897 4.360828c4.519724 7.379862 5.861517 20.939034-5.278897 34.868966C429.620966 846.618483 417.933241 851.685517 404.109241 851.685517zM372.25931 794.977103c1.942069 3.831172 5.437793 8.721655 11.511172 13.612138 4.819862 3.848828 10.78731 6.532414 16.34869 7.450483-3.990069-2.648276-8.545103-5.808552-13.665103-9.551448S376.496552 798.737655 372.25931 794.977103z" p-id="3758"></path><path d="M23.51669 904.915862c-5.15531 0-10.292966-2.259862-13.771034-6.603034-6.10869-7.609379-4.890483-18.714483 2.718897-24.805517 33.138759-26.624 113.063724-55.207724 166.082207-52.824276 24.717241 1.235862 49.664 14.018207 73.76331 26.376828 24.470069 12.552828 49.734621 25.56469 65.076966 20.109241 29.925517-10.628414 37.976276-47.810207 38.046897-48.180966 1.853793-9.569103 11.087448-15.83669 20.709517-13.947586 9.569103 1.853793 15.819034 11.140414 13.947586 20.709517-0.459034 2.330483-11.723034 57.238069-60.89269 74.681379-29.625379 10.593103-61.846069-5.985103-92.989793-21.945379-20.780138-10.663724-42.284138-21.698207-59.42731-22.528-43.149241-2.259862-115.217655 23.410759-142.212414 45.073655C31.284966 903.64469 27.383172 904.915862 23.51669 904.915862z" p-id="3759"></path></svg>