<?xml version="1.0" standalone="no"?><!DOCTYPE svg PUBLIC "-//W3C//DTD SVG 1.1//EN" "http://www.w3.org/Graphics/SVG/1.1/DTD/svg11.dtd"><svg t="1635664373304" class="icon" viewBox="0 0 1024 1024" version="1.1" xmlns="http://www.w3.org/2000/svg" p-id="1256" xmlns:xlink="http://www.w3.org/1999/xlink" width="200" height="200"><defs><style type="text/css"></style></defs><path d="M470.14813672 936.62170859l365.62377129-365.62377216A46.57015635 46.57015635 0 0 0 849.50037793 537.85156396L849.50037793 359.81505195c23.34367178-2.78319375 44.86508349-8.16208154 62.69510215-15.82025888C955.55470888 325.43821426 962 300.31915801 962 287.00084375c0-12.25191182-5.57224717-35.54284923-42.89634052-53.84161582-18.77923388-9.20504707-43.03696463-15.77338418-69.60328155-18.96087392L849.50037793 108.87644199a46.92757676 46.92757676 0 0 0-46.87484238-46.87484238l-316.4754999 1e-8a46.57015635 46.57015635 0 0 0-33.14637247 13.72846991l-365.62377216 365.62377129a46.87484238 46.87484238 0 0 0 0 66.2927458l23.10929735 23.10343857-23.10929735 23.1034377a46.95687334 46.95687334 0 0 0-9.96090381 14.69526328 18.74993731 18.74993731 0 0 0-9.92574757 31.71083115l336.36215128 336.36215127a46.93343643 46.93343643 0 0 0 66.2927458 0z m432.42042216-669.78876621C917.72671133 274.25088652 924.50012627 282.31335987 924.50012627 287.00084375c0 5.27341993-8.47262812 14.56635761-27.07608164 22.54094034-13.32417393 5.7070125-29.8827123 9.96090381-47.9236667 12.43355185L849.50037793 251.99119531c20.58391494 2.81835 38.9881503 7.92184834 53.09747754 14.84174707z m-788.66922568 214.29420205a9.37496865 9.37496865 0 0 1 0-13.25386143l365.62377217-365.62377215A9.29293769 9.29293769 0 0 1 486.15003565 99.50147333L802.62553555 99.50147334a9.37496865 9.37496865 0 0 1 9.37496864 9.37496865l1e-8 215.62427549c-42.05845283 0-80.99972754-9.11715644-101.63051807-23.78898193-7.31833506-5.20896709-12.4687081-14.56049795-14.16206162-19.60540313C685.36225742 241.33302881 648.91706768 212.00109541 605.75119648 212.00109541c-51.69123281 0-93.74968477 42.05845283-93.74968476 93.74968564s42.05845283 93.74968477 93.74968476 93.74968478c41.38462617 0 76.5876331-26.95303477 88.98602959-64.23025255C722.31721104 352.09242177 765.3951916 362.00059209 812.0005042 362.00059209l0 63.35134981a9.29293769 9.29293769 0 0 1-2.7480375 6.62693027l-365.62377217 365.62377217a9.37496865 9.37496865 0 0 1-13.25386143 0zM605.75119648 362.00059209a56.24981104 56.24981104 0 1 1 56.24981104-56.24981103 56.31426386 56.31426386 0 0 1-56.24981104 56.24981103z m-491.85186327 231.62617442a9.37496865 9.37496865 0 0 1-1e-8-13.25386143L137.00277177 557.26360771l266.85261915 266.85847882a46.93343643 46.93343643 0 0 0 66.2927458 0L812.00050419 482.26385937l1e-8 55.58770459a9.29293769 9.29293769 0 0 1-2.7480375 6.62693028l-365.62377217 365.62377217c-0.21093662 0.21093662-0.42773291 0.41015479-0.65624766 0.58593515l-0.09374941 0.07617217a9.37496865 9.37496865 0 0 1-11.75386728 0l-0.09374942-0.07617217c-0.22851474-0.18749971-0.44531104-0.38671787-0.65624766-0.58593516z" fill="#8a8a8a" p-id="1257"></path></svg>