<?xml version="1.0" standalone="no"?><!DOCTYPE svg PUBLIC "-//W3C//DTD SVG 1.1//EN" "http://www.w3.org/Graphics/SVG/1.1/DTD/svg11.dtd"><svg t="1635756483700" class="icon" viewBox="0 0 1024 1024" version="1.1" xmlns="http://www.w3.org/2000/svg" p-id="1151" xmlns:xlink="http://www.w3.org/1999/xlink" width="200" height="200"><defs><style type="text/css"></style></defs><path d="M157.39196283 312.98427549c23.20248652 70.25040253 46.75117331 136.30401002 66.2302405 203.54458966 6.36584604 21.9660568 7.58814563 48.45391299 1.76632878 70.37757798-20.0654882 75.57058338-44.27831386 150.03897685-68.15907078 229.04330263 23.67586223 0 43.50819408-0.55109495 63.2981355 0.14837134 20.58125571 0.72772659 38.27986399 7.29140293 37.70050736 32.02706189-0.5652251 23.95140901-16.11597828 31.30639967-38.23040642 30.74824032-29.41289683-0.73479235-58.85405394-0.02826167-88.28814531-0.21195908-41.66414882-0.26141663-53.40669766-14.75237311-41.67121321-54.42410254 23.58401284-79.70379071 49.47838365-158.74344254 71.60694333-238.82876092 5.42616037-19.64156869 4.67723652-43.67776271-1.22936398-63.28400398-21.25246034-70.55421098-45.87507401-140.09808283-69.31778125-209.99521932-15.37412016-45.83268219-4.83973938-61.21386811 42.68155371-61.34810931 58.62796336-0.16250287 117.26299249-0.04239182 174.06104075-0.04239182 3.05221469-5.00224087 5.49681249-7.14303158 5.20006978-8.77511778-11.23384709-61.15734615 25.95089277-89.36207356 74.12925898-111.48356745 171.53872369-78.77823519 342.67472517-76.02982895 513.92377056 0.68533478 37.00104245 16.57522384 53.13115088 41.69947487 52.68603545 85.00984141-2.17611676 213.0544998-0.95381718 426.13726125-1.01033913 639.21295832-0.01413014 54.36758061-3.68809328 63.51716031-56.44478222 77.14614761-50.84198881 13.13441568-103.25954324 23.47096893-155.53579072 27.06721282-126.85062185 8.73272595-253.56700251 8.90935898-377.11812317-29.89333692-35.01568885-10.99362635-50.92677244-28.9465855-50.26263357-68.46994362 2.32448812-137.69587685 0.26848241-275.45534143 1.83698088-413.17241281 0.16956725-14.58280447 9.58762938-35.26297535 21.2171343-42.17285058 21.52800714-12.79528118 40.49130681 6.46476118 40.55489453 39.00759057 0.27554678 129.49304857 1.23642972 259.00022727-0.72772658 388.46501556-0.44511404 29.57539833 8.74685748 41.12011963 36.61951474 46.75117331 147.00089367 29.70963952 293.76863101 29.66018195 440.89670013 1.30001745 28.19766302-5.43322476 39.68586097-16.82957472 39.39618265-48.66587344-1.80872059-200.11084727-1.73806711-400.24995619 0.00706577-600.3537391 0.25435088-28.85473611-10.02567903-43.42341045-33.93469622-52.95451784-153.81185514-61.31278188-305.85738013-62.59160342-456.0447297 12.604518-19.11873539 9.57349785-29.19387201 21.69051001-26.34655061 43.84026421 1.48371623 11.58004735-0.07065347 23.52042512 0.31087421 35.27710549 0.98207884 29.73790119-13.19093902 42.48372479-42.85112097 42.05980529C276.77454871 312.39785451 219.19225194 312.98427549 157.39196283 312.98427549z" p-id="1152"></path><path d="M630.83855671 193.14244402c23.54868679-0.04239182 47.71205626-3.22178196 70.39170951 1.20816807 12.63984406 2.46579369 22.81389444 17.59262874 34.10426348 27.01068947-10.36481353 10.49905474-20.16440196 29.31398169-31.20042014 30.06290557-49.21696701 3.35602316-98.9073111 3.41961087-148.11721234 0.13424119-10.68981791-0.71359644-20.12201015-20.1361403-30.14062342-30.94606926 10.26589977-9.14251395 19.51439325-24.24108733 31.0025912-26.19111349C580.90799326 190.33751444 606.1170293 193.18483585 630.83855671 193.14244402z" p-id="1153"></path></svg>