<?xml version="1.0" standalone="no"?><!DOCTYPE svg PUBLIC "-//W3C//DTD SVG 1.1//EN" "http://www.w3.org/Graphics/SVG/1.1/DTD/svg11.dtd"><svg t="1635664333876" class="icon" viewBox="0 0 1024 1024" version="1.1" xmlns="http://www.w3.org/2000/svg" p-id="812" xmlns:xlink="http://www.w3.org/1999/xlink" width="200" height="200"><defs><style type="text/css"></style></defs><path d="M849.8177056 175.54744427C759.5691904 85.7429696 639.62499627 36.2838112 512 36.2838112s-247.60405333 49.4591584-337.85256853 139.26363307C83.86588907 265.38678187 34.13333333 384.8869344 34.13333333 512c0 127.1460928 49.73255573 246.61321813 139.98107094 336.45255573 90.2485152 89.80447467 210.2275712 139.26363307 337.85256853 139.26363307s247.60405333-49.4591584 337.8177056-139.26363307c90.31640533-89.8723648 140.04896107-209.37435307 140.01409813-336.485584C989.83180373 384.8539072 940.13411093 265.38678187 849.8177056 175.54744427zM750.93425067 546.13425067L546.13425067 546.13425067l0 204.8c0 18.8753984-15.29188053 34.13425067-34.13425067 34.13425066s-34.13425067-15.2570176-34.13425067-34.13425066L477.86574933 546.13425067 273.067584 546.13425067c-18.84237013 0-34.13425067-15.29188053-34.13425067-34.13425067s15.29188053-34.13425067 34.13425067-34.13425067l204.8 0L477.867584 273.067584c0-18.84237013 15.29188053-34.13425067 34.13425067-34.13425067s34.13425067 15.29188053 34.13425066 34.13425067l0 204.8 204.8 0c18.8753984 0 34.13425067 15.29188053 34.13425067 34.13425067S769.80964907 546.13425067 750.93425067 546.13425067z" fill="#fad956" p-id="813"></path></svg>