<?xml version="1.0" standalone="no"?><!DOCTYPE svg PUBLIC "-//W3C//DTD SVG 1.1//EN" "http://www.w3.org/Graphics/SVG/1.1/DTD/svg11.dtd"><svg t="1636301395801" class="icon" viewBox="0 0 1024 1024" version="1.1" xmlns="http://www.w3.org/2000/svg" p-id="11651" xmlns:xlink="http://www.w3.org/1999/xlink" width="200" height="200"><defs><style type="text/css"></style></defs><path d="M906.930134 405.40861c0-13.007763-10.117149-23.124912-23.124912-23.124912h-15.175723v-1.445307-0.722654c-10.839802-49.140438-34.687368-85.273112-69.374735-106.952717-33.964714-20.956951-70.820042-23.124912-93.222301-22.402258-21.679605-61.425547-93.222301-132.245589-206.678899-125.741708-102.616796 5.781228-158.983769 75.878617-179.94072 123.573748-43.35921 1.445307-79.491884 15.898377-106.952717 44.081863-25.292872 25.292872-39.745942 58.534933-48.417784 89.609033h-23.124912c-13.007763 0-23.124912 10.117149-23.124912 23.124912 0 163.319689 99.726182 304.237121 242.088921 364.21736v96.112915c0 18.066337 13.730416 33.242061 31.0741 33.242061h244.256881c17.343684 0 31.0741-15.175723 31.0741-33.242061v-96.112915c140.917431-59.98024 240.643613-200.897671 240.643613-364.21736zM244.256881 325.194072c22.402258-22.402258 51.308398-32.519407 88.886379-30.351447 10.117149 0.722653 20.234298-6.503881 23.124912-15.898377 0-0.722653 32.519407-101.894143 145.253352-107.67537C599.802399 166.210303 657.614679 233.417078 666.286521 280.389555c1.445307 6.503881 5.058574 11.562456 10.117149 15.175724s11.562456 4.335921 18.066337 2.890614c0.722653 0 44.081863-9.394495 80.937191 13.730416 22.402258 13.730416 38.300635 37.577982 46.972477 70.820042H211.01482c6.503881-21.679605 17.343684-41.913903 33.242061-57.812279z m375.057163 528.259704H404.685956v-67.929429c33.964714 9.394495 70.097389 15.175723 106.952717 15.175724 36.855328 0 72.988003-5.058574 106.952717-15.175724v67.929429z m-107.675371-99.003529c-184.999294 0-336.756528-144.530699-348.318984-326.639379h697.360622c-12.285109 182.10868-164.042343 326.639379-349.041638 326.639379z" p-id="11652"></path></svg>