<?xml version="1.0" standalone="no"?><!DOCTYPE svg PUBLIC "-//W3C//DTD SVG 1.1//EN" "http://www.w3.org/Graphics/SVG/1.1/DTD/svg11.dtd"><svg t="1636302333023" class="icon" viewBox="0 0 1024 1024" version="1.1" xmlns="http://www.w3.org/2000/svg" p-id="1351" xmlns:xlink="http://www.w3.org/1999/xlink" width="200" height="200"><defs><style type="text/css"></style></defs><path d="M808.424 215.577c-11.808-11.809-27.508-18.312-44.208-18.312H259.784c-16.699 0-32.399 6.503-44.208 18.312-11.808 11.809-18.311 27.509-18.311 44.208v532.779c0 9.127 3.555 17.709 10.009 24.164 6.455 6.454 15.036 10.009 24.164 10.009h19.777v28.596c0 7.235 3.161 14.168 8.68 19.028 4.87 4.282 11.179 6.641 17.764 6.641h51.897c6.586 0 12.896-2.359 17.77-6.646 5.513-4.852 8.674-11.785 8.674-19.022v-28.596h317.938v28.596c0 7.235 3.161 14.168 8.684 19.03 4.87 4.281 11.178 6.639 17.761 6.639h51.897c6.586 0 12.896-2.359 17.767-6.645 5.514-4.851 8.677-11.785 8.677-19.024v-28.596h13.84c9.128 0 17.709-3.555 24.164-10.009 6.454-6.455 10.009-15.036 10.009-24.164V259.784c-0.002-16.699-6.505-32.399-18.313-44.207z m-50.451 280.289c-7.811-7.811-20.475-7.811-28.285 0l-77.222 77.221H527V303.103h259.735v269.984h-77.699l48.937-48.937c7.81-7.81 7.81-20.474 0-28.284zM297.262 303.103H497v55.334H317.609a20.212 20.212 0 0 1-14.387-5.959 20.214 20.214 0 0 1-5.959-14.387v-34.988z m-5.354 60.689c6.865 6.865 15.993 10.645 25.701 10.645H497v198.65h-85.465l48.937-48.937c7.811-7.811 7.811-20.474 0-28.285s-20.474-7.811-28.284 0l-77.222 77.221H237.265V303.103h43.998v34.988c-0.001 9.708 3.779 18.835 10.645 25.701zM316 841h-24.785v-14.265H316V841z m422.723 0h-24.785v-14.265h24.785V841z m48.012-54.265H237.264V613.087h549.471v173.648z m-549.47-523.632v-3.319c0-6.015 2.343-11.67 6.595-15.923a22.376 22.376 0 0 1 15.924-6.596h504.432c6.016 0 11.67 2.342 15.923 6.596a22.371 22.371 0 0 1 6.597 15.924v3.319H237.265z" fill="" p-id="1352"></path><path d="M342.077 696.08c0.414-2.523 0.638-5.11 0.638-7.749 0-26.329-21.42-47.749-47.749-47.749s-47.749 21.42-47.749 47.749a47.5 47.5 0 0 0 3.144 17.014 19.882 19.882 0 0 0-3.144 10.735c0 11.046 8.954 20 20 20h489.566c11.046 0 20-8.954 20-20 0-5.056-1.891-9.66-4.984-13.182a47.547 47.547 0 0 0 2.28-14.567c0-26.329-21.42-47.749-47.749-47.749s-47.749 21.42-47.749 47.749c0 2.639 0.225 5.226 0.639 7.749H342.077z m-47.111-15.498c4.273 0 7.749 3.477 7.749 7.749s-3.476 7.749-7.749 7.749-7.749-3.477-7.749-7.749 3.476-7.749 7.749-7.749z m423.615 7.749c0-4.272 3.477-7.749 7.749-7.749s7.749 3.477 7.749 7.749-3.477 7.749-7.749 7.749-7.749-3.476-7.749-7.749z" fill="" p-id="1353"></path></svg>