<?xml version="1.0" standalone="no"?><!DOCTYPE svg PUBLIC "-//W3C//DTD SVG 1.1//EN" "http://www.w3.org/Graphics/SVG/1.1/DTD/svg11.dtd"><svg t="1636301969196" class="icon" viewBox="0 0 1024 1024" version="1.1" xmlns="http://www.w3.org/2000/svg" p-id="19365" xmlns:xlink="http://www.w3.org/1999/xlink" width="200" height="200"><defs><style type="text/css"></style></defs><path d="M474.88 921.6H224c-7.68 0-12.8-6.4-12.8-12.8V611.84c0-7.68 6.4-12.8 12.8-12.8h252.16c7.68 0 12.8 6.4 12.8 12.8v295.68c0 7.68-6.4 14.08-14.08 14.08z m-238.08-26.88h225.28v-268.8H236.8v268.8z" p-id="19366"></path><path d="M360.96 869.12h-17.92c-3.84 0-6.4-2.56-6.4-6.4s2.56-6.4 6.4-6.4h17.92c3.84 0 6.4 2.56 6.4 6.4s-2.56 6.4-6.4 6.4zM430.08 869.12h-34.56c-3.84 0-6.4-2.56-6.4-6.4s2.56-6.4 6.4-6.4h28.16V657.92c0-3.84 2.56-6.4 6.4-6.4s6.4 2.56 6.4 6.4v204.8c0 3.84-2.56 6.4-6.4 6.4zM440.32 624.64H258.56c-7.68 0-12.8-6.4-12.8-12.8v-256c0-7.68 6.4-12.8 12.8-12.8h180.48c7.68 0 12.8 6.4 12.8 12.8v256c1.28 7.68-5.12 12.8-11.52 12.8z m-167.68-26.88h153.6V368.64h-153.6v229.12z" p-id="19367"></path><path d="M394.24 573.44c-3.84 0-6.4-2.56-6.4-6.4v-166.4c0-3.84 2.56-6.4 6.4-6.4s6.4 2.56 6.4 6.4v165.12c0 3.84-2.56 7.68-6.4 7.68zM403.2 368.64h-107.52c-7.68 0-12.8-6.4-12.8-12.8V199.68c0-7.68 6.4-12.8 12.8-12.8s12.8 6.4 12.8 12.8v142.08h80.64V133.12c0-7.68 6.4-12.8 12.8-12.8s12.8 6.4 12.8 12.8v222.72c1.28 6.4-3.84 12.8-11.52 12.8z" p-id="19368"></path><path d="M321.28 236.8c-11.52 0-20.48-3.84-28.16-10.24-20.48-20.48-11.52-60.16 20.48-92.16s71.68-40.96 92.16-20.48c20.48 20.48 11.52 60.16-20.48 92.16-20.48 19.2-44.8 30.72-64 30.72z m56.32-107.52c-2.56 0-6.4 0-10.24 1.28-11.52 3.84-24.32 11.52-34.56 21.76s-19.2 23.04-21.76 34.56c-2.56 8.96-2.56 15.36 1.28 19.2 6.4 6.4 30.72 1.28 53.76-20.48 10.24-10.24 19.2-23.04 21.76-34.56 2.56-8.96 2.56-15.36-1.28-19.2-1.28-1.28-5.12-2.56-8.96-2.56zM800 921.6H549.12c-7.68 0-12.8-6.4-12.8-12.8V378.88c0-7.68 6.4-12.8 12.8-12.8h252.16c7.68 0 12.8 6.4 12.8 12.8V908.8c0 6.4-6.4 12.8-14.08 12.8z m-238.08-26.88h225.28V391.68H561.92v503.04z" p-id="19369"></path><path d="M669.44 430.08h-12.8c-3.84 0-6.4-2.56-6.4-6.4s2.56-6.4 6.4-6.4h12.8c3.84 0 6.4 2.56 6.4 6.4s-2.56 6.4-6.4 6.4zM755.2 679.68c-3.84 0-6.4-2.56-6.4-6.4v-243.2h-49.92c-3.84 0-6.4-2.56-6.4-6.4s2.56-6.4 6.4-6.4H755.2c3.84 0 6.4 2.56 6.4 6.4v249.6c0 3.84-2.56 6.4-6.4 6.4z" p-id="19370"></path></svg>