<?xml version="1.0" standalone="no"?><!DOCTYPE svg PUBLIC "-//W3C//DTD SVG 1.1//EN" "http://www.w3.org/Graphics/SVG/1.1/DTD/svg11.dtd"><svg t="1636301902128" class="icon" viewBox="0 0 1024 1024" version="1.1" xmlns="http://www.w3.org/2000/svg" p-id="17384" xmlns:xlink="http://www.w3.org/1999/xlink" width="200" height="200"><defs><style type="text/css"></style></defs><path d="M936 566.4h-3.2c-5.6-0.8-12-1.6-16.8-1.6H816c-4.8 0-8.8-1.6-12-5.6-3.2-3.2-4.8-8-4-12 6.4-67.2 41.6-126.4 100.8-168 34.4-24 81.6-15.2 104.8 18.4 11.2 16.8 16 36.8 12.8 56-3.2 20-14.4 36.8-31.2 48.8-19.2 13.6-32 31.2-36 51.2-0.8 8-7.2 12.8-15.2 12.8z m-101.6-33.6H924.8c8-21.6 23.2-41.6 44.8-56 9.6-6.4 16-16.8 17.6-28 2.4-11.2-0.8-23.2-7.2-32-13.6-20-40.8-24-60.8-10.4-45.6 31.2-75.2 76-84.8 126.4zM874.4 800c-41.6 0-75.2-33.6-75.2-75.2v-57.6c0-8.8 7.2-16 16-16h100.8c4.8 0 10.4-0.8 15.2-1.6 4.8-0.8 9.6 0.8 12.8 3.2s5.6 7.2 5.6 12v59.2c0.8 42.4-33.6 76-75.2 76z m-43.2-116.8v41.6c0 24 19.2 43.2 43.2 43.2s43.2-19.2 43.2-43.2v-41.6h-86.4zM149.6 800c-41.6 0-75.2-33.6-75.2-75.2v-59.2c0-4.8 2.4-9.6 5.6-12 4-3.2 8.8-4 12.8-3.2 5.6 0.8 10.4 1.6 15.2 1.6h100.8c8.8 0 16 7.2 16 16v57.6c0 40.8-33.6 74.4-75.2 74.4z m-44-116.8v41.6c0 24 19.2 43.2 43.2 43.2s43.2-19.2 43.2-43.2v-41.6H105.6zM88 566.4c-7.2 0-14.4-5.6-16-12.8-4-19.2-16.8-37.6-36-51.2-16.8-11.2-27.2-28.8-31.2-48.8-3.2-20 0.8-40 12.8-56 24-34.4 71.2-42.4 104.8-18.4 59.2 40.8 94.4 100.8 100.8 168 0.8 4.8-0.8 8.8-4 12-3.2 3.2-7.2 5.6-12 5.6H108c-5.6 0-11.2 0.8-16.8 1.6H88zM79.2 397.6c-13.6 0-27.2 6.4-36 18.4-6.4 9.6-9.6 20.8-7.2 32 2.4 11.2 8 21.6 17.6 28 21.6 15.2 36.8 34.4 44.8 56H188.8c-9.6-50.4-39.2-95.2-84.8-127.2-7.2-4.8-16-7.2-24.8-7.2z" p-id="17385"></path><path d="M816 564.8H208c-8 0-15.2-6.4-16-14.4-5.6-57.6-36-108.8-87.2-144.8-3.2-2.4-6.4-4-9.6-4.8-5.6-2.4-9.6-7.2-10.4-12.8-6.4-40.8 5.6-82.4 32.8-114.4C144 242.4 184 224 225.6 224h572.8c41.6 0 81.6 18.4 108 49.6 27.2 31.2 39.2 72.8 32.8 114.4-0.8 5.6-4.8 10.4-10.4 12.8-4 1.6-7.2 3.2-9.6 4.8-51.2 36-82.4 87.2-87.2 144.8-0.8 8-7.2 14.4-16 14.4z m-594.4-32h580c9.6-60.8 44.8-115.2 99.2-153.6 2.4-1.6 4.8-3.2 8-4.8 2.4-28.8-7.2-57.6-26.4-80-20.8-24.8-52-38.4-84-38.4H225.6c-32 0-63.2 14.4-84 38.4-19.2 22.4-28.8 51.2-26.4 80 2.4 1.6 5.6 3.2 8 4.8 54.4 38.4 88.8 92 98.4 153.6z" p-id="17386"></path><path d="M916 683.2h-808C56 683.2 12.8 649.6 12.8 608s42.4-75.2 95.2-75.2h808c52.8 0 95.2 33.6 95.2 75.2s-43.2 75.2-95.2 75.2z m-808-118.4c-34.4 0-63.2 20-63.2 43.2 0 23.2 28.8 43.2 63.2 43.2h808c34.4 0 63.2-20 63.2-43.2 0-23.2-28.8-43.2-63.2-43.2h-808z" p-id="17387"></path><path d="M368 556.8c-3.2 0-6.4-2.4-7.2-5.6-9.6-25.6-30.4-57.6-57.6-86.4-27.2-28.8-56.8-51.2-81.6-61.6-3.2-1.6-4.8-4-4.8-7.2s1.6-6.4 4.8-7.2c24-10.4 54.4-32 81.6-61.6 27.2-28.8 48.8-60 57.6-86.4 0.8-3.2 4-5.6 7.2-5.6s6.4 2.4 7.2 5.6c9.6 25.6 30.4 57.6 57.6 86.4 27.2 28.8 56.8 51.2 81.6 61.6 3.2 1.6 4.8 4 4.8 7.2s-1.6 6.4-4.8 7.2c-24 10.4-54.4 32-81.6 61.6-27.2 28.8-48.8 60-57.6 86.4-0.8 3.2-3.2 5.6-7.2 5.6z m-124.8-160c23.2 12.8 48 32.8 71.2 57.6 23.2 24 41.6 50.4 53.6 74.4 12-24 31.2-50.4 53.6-74.4 23.2-24.8 48.8-44.8 71.2-57.6-23.2-12.8-48-32.8-71.2-57.6-23.2-24-41.6-50.4-53.6-74.4-12 24-31.2 50.4-53.6 74.4-23.2 24.8-48.8 44.8-71.2 57.6z" p-id="17388"></path><path d="M656 556.8c-3.2 0-6.4-2.4-7.2-5.6-9.6-25.6-30.4-57.6-57.6-86.4-27.2-28.8-56.8-51.2-81.6-61.6-4 0-5.6-3.2-5.6-6.4s1.6-6.4 4.8-7.2c24-10.4 54.4-32 81.6-61.6 27.2-28.8 48.8-60 57.6-86.4 0.8-3.2 4-5.6 7.2-5.6s6.4 2.4 7.2 5.6C672 267.2 692.8 299.2 720 328c27.2 28.8 56.8 51.2 81.6 61.6 3.2 1.6 4.8 4 4.8 7.2s-1.6 6.4-4.8 7.2c-24 10.4-54.4 32-81.6 61.6-27.2 28.8-48.8 60-57.6 86.4 0 2.4-3.2 4.8-6.4 4.8z m-125.6-160c23.2 12.8 48 32.8 71.2 57.6 23.2 24 41.6 50.4 53.6 74.4 12-24 31.2-50.4 53.6-74.4 23.2-24.8 48.8-44.8 71.2-57.6-23.2-12.8-48-32.8-71.2-57.6-23.2-24-41.6-50.4-53.6-74.4-12 24-31.2 50.4-53.6 74.4-23.2 24.8-48.8 44.8-71.2 57.6z" p-id="17389"></path></svg>