<?xml version="1.0" standalone="no"?><!DOCTYPE svg PUBLIC "-//W3C//DTD SVG 1.1//EN" "http://www.w3.org/Graphics/SVG/1.1/DTD/svg11.dtd"><svg t="1636303869494" class="icon" viewBox="0 0 1024 1024" version="1.1" xmlns="http://www.w3.org/2000/svg" p-id="11776" xmlns:xlink="http://www.w3.org/1999/xlink" width="200" height="200"><defs><style type="text/css"></style></defs><path d="M179.5 892.2c-37.9 0-70-10.3-94-30.8l-0.7-0.6-22.1-21.7 455.7-535.2L699.6 459 432.9 772.3c-36.1 42.3-98.5 82-162.8 103.6-32.7 10.9-63.2 16.3-90.6 16.3z m-46.2-58.9c69.1 32.5 206.7-29 261.5-93.4l234.4-275.3L524 374.5 133.3 833.3zM692.8 427.8L551 305.9l143.7-167.2c7.2-8.4 19.8-9.3 28.2-2.1l111.5 95.8c8.4 7.2 9.3 19.8 2.1 28.2L692.8 427.8zM550.9 891.6h-95.6c-17.8 0-32.3-14.5-32.3-32.3 0-17.8 14.5-32.3 32.3-32.3h95.6c17.8 0 32.3 14.5 32.3 32.3 0 17.8-14.5 32.3-32.3 32.3zM771.7 530.5c-102.1 0-184.9 81.1-184.9 181.2s82.8 181.2 184.9 181.2 184.9-81.1 184.9-181.2-82.8-181.2-184.9-181.2z m97.9 156.1c0 6.5-5.4 11.8-12.1 11.8H790v30.7h67.5c6.6 0 12.1 5.3 12.1 11.8 0 6.5-5.4 11.8-12.1 11.8H790V814c0 6.5-5.4 11.8-12.1 11.8-6.6 0-12.1-5.3-12.1-11.8v-61.3h-64.3c-6.6 0-12.1-5.3-12.1-11.8 0-6.5 5.4-11.8 12.1-11.8h64.3v-30.7h-64.3c-6.6 0-12.1-5.3-12.1-11.8 0-6.5 5.4-11.8 12.1-11.8h57.2c-0.1-0.1-0.2-0.1-0.3-0.2L709 630.9c-5-4.3-5.5-11.8-1.1-16.7 4.4-4.9 12-5.4 17-1.1l49.4 43.7c0.6 0.5 1.2 1.2 1.7 1.8 0.4-0.1 0.8-0.1 1.3-0.1 0.6-0.9 1.3-1.7 2.2-2.5l54.2-43.7c5-4.3 12.6-3.8 17 1.1s3.9 12.4-1.1 16.7l-54.2 43.7c-0.4 0.4-0.9 0.7-1.3 1h63.3c6.8 0 12.2 5.3 12.2 11.8z" p-id="11777"></path></svg>