<?xml version="1.0" standalone="no"?><!DOCTYPE svg PUBLIC "-//W3C//DTD SVG 1.1//EN" "http://www.w3.org/Graphics/SVG/1.1/DTD/svg11.dtd"><svg t="1636303199349" class="icon" viewBox="0 0 1024 1024" version="1.1" xmlns="http://www.w3.org/2000/svg" p-id="6479" xmlns:xlink="http://www.w3.org/1999/xlink" width="200" height="200"><defs><style type="text/css"></style></defs><path d="M513.3 895.64c-165 0-299.24-134.24-299.24-299.24 0-159.61 269.67-445.61 281.15-457.72l18.09-19.06 18.09 19.06c11.48 12.1 281.15 298.1 281.15 457.72 0 165-134.23 299.24-299.24 299.24z m0-703.12C429.81 284.3 263.93 488.85 263.93 596.4c0 137.5 111.87 249.37 249.37 249.37S762.67 733.9 762.67 596.4c0-107.56-165.88-312.11-249.37-403.88z" fill="#108EE9" p-id="6480"></path><path d="M609.14 750.52c-8.28 0-16.37-4.12-21.12-11.63-7.35-11.65-3.86-27.05 7.79-34.39 21.65-13.66 37.8-34.55 45.48-58.83 4.15-13.14 18.16-20.4 31.3-16.26 13.13 4.16 20.41 18.17 16.26 31.29-11.23 35.51-34.82 66.04-66.42 85.97-4.14 2.6-8.75 3.85-13.29 3.85z" fill="#108EE9" p-id="6481"></path></svg>