<?xml version="1.0" standalone="no"?><!DOCTYPE svg PUBLIC "-//W3C//DTD SVG 1.1//EN" "http://www.w3.org/Graphics/SVG/1.1/DTD/svg11.dtd"><svg t="1636303396390" class="icon" viewBox="0 0 1024 1024" version="1.1" xmlns="http://www.w3.org/2000/svg" p-id="9830" xmlns:xlink="http://www.w3.org/1999/xlink" width="200" height="200"><defs><style type="text/css"></style></defs><path d="M548.2 191.8H301c-25.8 0-47 21.1-47 47v98.1c0 25.8 21.1 47 47 47h247.3c25.8 0 47-21.1 47-47v-98.1c-0.1-25.9-21.2-47-47.1-47z m-17 128H318v-64h213.2v64z m398.2-76.3L811.8 126.3c-12.5-12.5-32.8-12.4-45.3 0.1s-12.4 32.8 0.1 45.3l93.4 93-67 24.2c-13.6 4.9-20.6 19.9-15.7 33.5 4.9 13.6 19.9 20.6 33.5 15.7l67.4-24.4-0.6 20.4V822c0 12.7-10.3 23-23 23h-4.5c-12.7 0-23-10.3-23-23V415c0-41.9-34.1-76-76-76h-37.7V189.4C713.5 118.5 656 61 585.1 61H251.5c-70.3 0-127.4 57-127.4 127.4v708.1H81.8v63.6h674.1v-63.6h-42.4V403h37.7c6.6 0 12 5.4 12 12v407c0 48 39 87 87 87h4.5c48 0 87-39 87-87V335.5l1.6-57.3c0.3-13-4.7-25.6-13.9-34.7zM649.5 896.1H188.2V769.8h461.3v126.3z m0-189.9H188.2V188.4c0-34.9 28.4-63.4 63.4-63.4h333.5c35.5 0 64.4 28.9 64.4 64.4v516.8z" p-id="9831"></path></svg>