<?xml version="1.0" standalone="no"?><!DOCTYPE svg PUBLIC "-//W3C//DTD SVG 1.1//EN" "http://www.w3.org/Graphics/SVG/1.1/DTD/svg11.dtd"><svg t="1636302440657" class="icon" viewBox="0 0 1024 1024" version="1.1" xmlns="http://www.w3.org/2000/svg" p-id="3281" xmlns:xlink="http://www.w3.org/1999/xlink" width="200" height="200"><defs><style type="text/css"></style></defs><path d="M818.521139 747.409544 818.521139 369.985566c0-80.256882-30.857798-156.080801-86.888929-213.502605-56.210209-57.607022-131.267673-89.972151-211.346499-91.133603-5.462408-0.077771-11.037381-0.077771-16.507976 0-80.651878 1.169639-156.249647 33.768081-212.867132 91.789543-56.43636 57.836243-87.516216 134.205585-87.516216 215.043704l0 374.162702c0 0-0.323365 12.450567 0.889253 15.093766 6.892991 56.229652 54.617945 99.993388 112.532983 100.623745l-77.260641 59.246359c-9.139148 7.008624-10.866489 20.09671-3.858888 29.234835 4.106528 5.355985 10.298554 8.165983 16.562211 8.165983 4.425799 0 8.889461-1.404999 12.672624-4.307096l39.97341-30.652114c0 0 405.79719-0.274246 407.537833-0.74599l40.945551 31.398104c3.783163 2.902096 8.246825 4.307096 12.673647 4.307096 6.261611 0 12.455683-2.812045 16.561188-8.165983 7.006578-9.139148 5.28026-22.228257-3.858888-29.234835l-77.219709-59.213613 2.291183 0C767.073396 862.09454 818.521139 810.646797 818.521139 747.409544zM320.758398 186.263218c48.861848-50.073442 114.075105-78.206176 183.620018-79.215156 2.533706-0.036839 5.085832-0.055259 7.656377-0.055259 2.569522 0 5.121648 0.01842 7.650237 0.055259 68.971861 1.000793 133.642766 28.900214 182.098361 78.56024 48.387034 49.587372 75.033927 115.066689 75.033927 184.377264l0 361.928053L245.097184 731.913619 245.097184 372.181581C245.097184 302.290791 271.967158 236.265028 320.758398 186.263218zM249.982448 773.617439l521.948583 0c-10.55438 27.328415-37.089733 46.774303-68.094888 46.774303L318.078359 820.391742C287.072181 820.390719 260.537851 800.945855 249.982448 773.617439zM659.029658 882.045941 359.288946 882.045941l26.018583-19.951401L633.011074 862.09454 659.029658 882.045941z" p-id="3282"></path><path d="M311.822888 440.888406l398.268726 0c11.515265 0 20.85191-9.335622 20.85191-20.85191L730.943524 299.096029c0-11.516288-9.336646-20.85191-20.85191-20.85191L311.822888 278.244118c-11.516288 0-20.85191 9.335622-20.85191 20.85191l0 120.940466C290.970978 431.552783 300.3066 440.888406 311.822888 440.888406zM689.239703 399.184585 529.703197 399.184585c0.013303-0.300852 0.045025-0.596588 0.045025-0.900509l0-78.337159 159.491481 0L689.239703 399.184585zM332.674798 319.947939l155.370627 0 0 78.337159c0 0.303922 0.032746 0.599657 0.045025 0.900509L332.674798 399.185608 332.674798 319.947939z" p-id="3283"></path><path d="M509.915525 522.272971c-46.962591 0-85.169775 38.20616-85.169775 85.167728 0 46.961568 38.207184 85.168752 85.169775 85.168752s85.168752-38.207184 85.168752-85.168752C595.084277 560.479131 556.878117 522.272971 509.915525 522.272971zM509.915525 650.904607c-23.966854 0-43.465954-19.498076-43.465954-43.464931 0-23.964808 19.4991-43.462884 43.465954-43.462884 23.965831 0 43.464931 19.498076 43.464931 43.462884C553.380456 631.407554 533.88238 650.904607 509.915525 650.904607z" p-id="3284"></path><path d="M444.256106 225.215368 573.536518 225.215368c11.516288 0 20.85191-9.335622 20.85191-20.85191 0-11.516288-9.335622-20.85191-20.85191-20.85191L444.256106 183.511547c-11.516288 0-20.85191 9.335622-20.85191 20.85191C423.404196 215.879746 432.739818 225.215368 444.256106 225.215368z" p-id="3285"></path></svg>