<?xml version="1.0" standalone="no"?><!DOCTYPE svg PUBLIC "-//W3C//DTD SVG 1.1//EN" "http://www.w3.org/Graphics/SVG/1.1/DTD/svg11.dtd"><svg t="1636303301598" class="icon" viewBox="0 0 1024 1024" version="1.1" xmlns="http://www.w3.org/2000/svg" p-id="8757" xmlns:xlink="http://www.w3.org/1999/xlink" width="200" height="200"><defs><style type="text/css"></style></defs><path d="M328.645149 1023.776368a35.686989 35.686989 0 0 1-32.332505-20.409379c-70.738391-148.962575-30.67292-239.121655 23.069425-314.379771 47.11577-70.726621 60.027586-140.464552 60.133517-141.123678a35.710529 35.710529 0 0 1 26.259127-28.365977 35.87531 35.87531 0 0 1 36.746298 12.029058c0.98869 1.330023 13.123678 16.442851 23.387219 42.925609 18.208368-55.390161 21.963034-111.66308 16.44285-139.25223a35.81646 35.81646 0 0 1 15.560092-36.958161 35.81646 35.81646 0 0 1 40.053702 0.659127c185.155678 129.647816 255.564506 405.398069 153.6 602.253241a35.781149 35.781149 0 1 1-63.558621-32.873931C701.498851 826.262069 665.199816 627.865011 553.430805 507.138943c-7.285701 65.995034-31.661609 148.644782-85.403954 209.766988a35.80469 35.80469 0 0 1-42.607817 8.498023 35.898851 35.898851 0 0 1-19.420689-38.841379c0.447264-2.201011 0.776828-4.296092 1.118161-6.508874a496.169195 496.169195 0 0 1-29.025104 49.658115c-42.372414 59.250759-74.928552 121.702989-17.325609 243.088184a35.745839 35.745839 0 0 1-16.996046 47.668966 35.898851 35.898851 0 0 1-15.112827 3.307402z" p-id="8758"></path><path d="M328.645149 1023.776368a35.757609 35.757609 0 0 1-17.772873-4.743357C104.212598 900.413793 33.933241 781.900506 68.337287 609.986207c11.475862-53.954207 35.086713-100.858115 58.050207-146.208368 26.141425-51.753195 50.752736-100.752184 53.954207-153.717701a35.581057 35.581057 0 0 1 27.801012-32.650299 35.557517 35.557517 0 0 1 39.182712 17.537471c17.313839 31.226115 27.471448 57.826575 33.650759 84.415265 93.019218-131.08377 132.743356-243.970943 118.407356-336.436966A35.698759 35.698759 0 0 1 444.933885 3.201471c7.391632 2.201011 162.098023 50.870437 254.458115 269.347311-1.883218-15.771954-6.073379-31.226115-12.134989-44.349793a35.757609 35.757609 0 0 1 9.380782-42.490115 35.475126 35.475126 0 0 1 43.467035-1.883219c50.540874 35.310345 225.868506 229.199448 215.840367 448.123586-7.062069 153.270437-100.634483 282.482759-278.292597 384a35.757609 35.757609 0 0 1-48.775357-13.35908 35.686989 35.686989 0 0 1 13.359081-48.775356C797.060414 865.103448 878.592 755.641379 884.453517 628.418207c5.508414-120.172874-58.37977-236.473379-114.546758-310.29554-4.849287 36.640368-19.750253 70.844322-46.998069 94.125609a35.486897 35.486897 0 0 1-33.992092 6.944368 35.757609 35.757609 0 0 1-23.940414-25.046805C618.401839 215.828598 529.254989 132.649195 473.417563 96.444322c-4.861057 115.523678-67.53692 246.289655-189.910804 397.35908-9.26308 11.464092-24.823172 15.983816-38.723679 11.464092a35.781149 35.781149 0 0 1-24.717241-32.002942 855.958069 855.958069 0 0 0-2.318713-34.203954c-8.603954 19.42069-18.208368 38.288184-27.589149 56.943816-21.739402 43.137471-42.372414 83.968-51.753195 128.435494-23.610851 117.854161 2.977839 214.839908 208.119172 332.576368a35.757609 35.757609 0 0 1 13.241379 48.775356 36.146023 36.146023 0 0 1-31.120184 17.984736z" p-id="8759"></path></svg>