<?xml version="1.0" standalone="no"?><!DOCTYPE svg PUBLIC "-//W3C//DTD SVG 1.1//EN" "http://www.w3.org/Graphics/SVG/1.1/DTD/svg11.dtd"><svg t="1636351046289" class="icon" viewBox="0 0 1024 1024" version="1.1" xmlns="http://www.w3.org/2000/svg" p-id="13926" xmlns:xlink="http://www.w3.org/1999/xlink" width="200" height="200"><defs><style type="text/css"></style></defs><path d="M503.222857 901.12c-29.257143 0-58.514286-2.925714-84.845714-8.777143-84.845714-14.628571-160.914286-49.737143-210.651429-102.4-8.777143-8.777143-8.777143-23.405714 2.925715-32.182857 8.777143-8.777143 23.405714-8.777143 32.182857 2.925714 40.96 43.885714 108.251429 76.068571 184.32 90.697143 23.405714 5.851429 49.737143 5.851429 76.068571 5.851429 52.662857 0 73.142857 0 140.434286-23.405715 20.48-8.777143 128.731429-70.217143 149.211428-117.028571 0 0 0-2.925714 2.925715-2.925714 5.851429-11.702857 8.777143-20.48 11.702857-29.257143 2.925714-11.702857 11.702857-20.48 23.405714-20.48s23.405714 11.702857 23.405714 23.405714v2.925714c-2.925714 20.48-8.777143 35.108571-17.554285 49.737143 0 0 0 2.925714-2.925715 2.925715-32.182857 64.365714-152.137143 131.657143-175.542857 140.434285-73.142857 17.554286-99.474286 17.554286-155.062857 17.554286zM585.142857 681.691429c-5.851429 0-11.702857-2.925714-14.628571-5.851429-46.811429-43.885714-137.508571-70.217143-231.131429-67.291429-5.851429 0-11.702857-2.925714-17.554286-5.851428-52.662857-55.588571-84.845714-128.731429-84.845714-204.8 0-160.914286 131.657143-292.571429 292.571429-292.571429s292.571429 131.657143 292.571428 292.571429c0 137.508571-99.474286 257.462857-234.057143 286.72 0-2.925714-2.925714-2.925714-2.925714-2.925714z m-231.131428-119.954286c96.548571 0 184.32 26.331429 236.982857 73.142857 108.251429-26.331429 184.32-125.805714 184.32-236.982857 0-137.508571-111.177143-245.76-245.76-245.76-137.508571 0-245.76 111.177143-245.76 245.76 0 61.44 23.405714 119.954286 64.365714 166.765714 0-2.925714 2.925714-2.925714 5.851429-2.925714z" fill="#2D78B6" p-id="13927"></path><path d="M617.325714 748.982857c-11.702857 0-20.48-8.777143-23.405714-20.48-2.925714-17.554286-11.702857-35.108571-26.331429-52.662857-8.777143-8.777143-8.777143-23.405714 0-32.182857 8.777143-8.777143 23.405714-8.777143 32.182858 0 23.405714 23.405714 38.034286 52.662857 40.96 78.994286 2.925714 11.702857-8.777143 23.405714-20.48 23.405714 0 2.925714 0 2.925714-2.925715 2.925714zM190.171429 637.805714c-8.777143 0-17.554286-5.851429-20.48-14.628571-5.851429-11.702857 0-23.405714 11.702857-29.257143 29.257143-11.702857 61.44-20.48 99.474285-26.331429 17.554286-2.925714 38.034286-5.851429 55.588572-5.851428 11.702857-2.925714 23.405714 8.777143 23.405714 20.48s-8.777143 23.405714-20.48 23.405714c-17.554286 0-35.108571 2.925714-52.662857 5.851429-32.182857 5.851429-61.44 11.702857-87.771429 23.405714-2.925714 0-5.851429 2.925714-8.777142 2.925714zM433.005714 895.268571c-11.702857 0-23.405714-11.702857-23.405714-23.405714s11.702857-23.405714 23.405714-23.405714 23.405714 11.702857 23.405715 23.405714c0 14.628571-11.702857 23.405714-23.405715 23.405714z" fill="#2D78B6" p-id="13928"></path><path d="M547.108571 754.834286c-55.588571 0-111.177143-14.628571-160.914285-38.034286-11.702857-5.851429-14.628571-20.48-8.777143-29.257143 5.851429-11.702857 20.48-14.628571 29.257143-8.777143 40.96 20.48 90.697143 32.182857 140.434285 32.182857 23.405714 0 43.885714-2.925714 67.291429-8.777142 43.885714-8.777143 84.845714-29.257143 117.028571-55.588572 5.851429-5.851429 11.702857-11.702857 20.48-17.554286 8.777143-8.777143 23.405714-8.777143 32.182858 0 8.777143 8.777143 8.777143 23.405714 0 32.182858-8.777143 8.777143-14.628571 14.628571-23.405715 20.48-38.034286 29.257143-84.845714 52.662857-137.508571 64.365714-23.405714 5.851429-49.737143 8.777143-76.068572 8.777143z" fill="#2D78B6" p-id="13929"></path><path d="M830.902857 710.948571c-11.702857 0-23.405714-11.702857-23.405714-23.405714 0-8.777143-2.925714-14.628571-8.777143-20.48-5.851429-2.925714-8.777143-5.851429-14.628571-5.851428-2.925714 0-2.925714 0-2.925715 2.925714-2.925714 2.925714-5.851429 2.925714-8.777143 5.851428-11.702857 5.851429-23.405714 2.925714-29.257142-11.702857-5.851429-11.702857-2.925714-23.405714 8.777142-29.257143 5.851429-5.851429 11.702857-8.777143 23.405715-11.702857h2.925714c20.48-2.925714 40.96 2.925714 52.662857 14.628572 14.628571 14.628571 23.405714 32.182857 23.405714 52.662857 0 14.628571-11.702857 26.331429-23.405714 26.331428zM617.325714 433.005714H438.857143c-11.702857 0-23.405714-11.702857-23.405714-23.405714s11.702857-23.405714 23.405714-23.405714h178.468571c11.702857 0 23.405714 11.702857 23.405715 23.405714s-11.702857 23.405714-23.405715 23.405714z" fill="#2D78B6" p-id="13930"></path><path d="M529.554286 523.702857c-11.702857 0-23.405714-11.702857-23.405715-23.405714v-87.771429c0-11.702857 11.702857-23.405714 23.405715-23.405714s23.405714 11.702857 23.405714 23.405714v90.697143c0 8.777143-11.702857 20.48-23.405714 20.48z" fill="#2D78B6" p-id="13931"></path><path d="M529.554286 397.897143c-5.851429 0-11.702857-2.925714-17.554286-5.851429l-61.44-61.44c-8.777143-8.777143-8.777143-23.405714 0-32.182857 8.777143-8.777143 23.405714-8.777143 32.182857 0l61.44 61.44c8.777143 8.777143 8.777143 23.405714 0 32.182857-2.925714 5.851429-8.777143 5.851429-14.628571 5.851429z" fill="#B71F28" p-id="13932"></path><path d="M529.554286 397.897143c-5.851429 0-11.702857-2.925714-17.554286-5.851429-8.777143-8.777143-8.777143-23.405714 0-32.182857l61.44-61.44c8.777143-8.777143 23.405714-8.777143 32.182857 0 8.777143 8.777143 8.777143 23.405714 0 32.182857l-61.44 61.44c-5.851429 5.851429-8.777143 5.851429-14.628571 5.851429z" fill="#B71F28" p-id="13933"></path></svg>