<?xml version="1.0" standalone="no"?><!DOCTYPE svg PUBLIC "-//W3C//DTD SVG 1.1//EN" "http://www.w3.org/Graphics/SVG/1.1/DTD/svg11.dtd"><svg t="1636303338257" class="icon" viewBox="0 0 1024 1024" version="1.1" xmlns="http://www.w3.org/2000/svg" p-id="9642" xmlns:xlink="http://www.w3.org/1999/xlink" width="200" height="200"><defs><style type="text/css"></style></defs><path d="M468.88 177.24a11.395 11.395 0 0 0-8.964 10.33l-16.86 236.496a32 32 0 0 1-9.292 20.352L150.227 727.956c-40.303 40.302-40.303 105.645 0 145.947 40.302 40.302 105.644 40.302 145.946 0l283.44-283.44a32 32 0 0 1 20.353-9.292L836.619 564.3a11.395 11.395 0 0 0 10.331-8.975l53.134-247.62-99.718 99.718a41.697 41.697 0 0 1-38.884 11.14l-112.047-25.926a32 32 0 0 1-24.21-25.13l-20.443-106.239a41.697 41.697 0 0 1 11.461-37.364l99.977-99.977-247.34 53.314zM330.115 907.845c-59.047 59.047-154.781 59.047-213.829 0-59.047-59.047-59.047-154.782 0-213.829l279.317-279.317 16.435-230.542c1.878-26.338 20.918-48.274 46.73-53.838L729.1 72.048a46.679 46.679 0 0 1 42.843 12.624c14.197 14.198 14.197 37.217 0 51.415L652.549 255.481l17.845 92.738 98.502 22.791 118.985-118.985c14.198-14.197 37.217-14.197 51.415 0a46.704 46.704 0 0 1 12.64 42.824l-58.054 270.546c-5.544 25.837-27.491 44.904-53.85 46.783l-230.698 16.447-279.22 279.219z" p-id="9643"></path></svg>