<?xml version="1.0" standalone="no"?><!DOCTYPE svg PUBLIC "-//W3C//DTD SVG 1.1//EN" "http://www.w3.org/Graphics/SVG/1.1/DTD/svg11.dtd"><svg t="1635755596296" class="icon" viewBox="0 0 1024 1024" version="1.1" xmlns="http://www.w3.org/2000/svg" p-id="7042" xmlns:xlink="http://www.w3.org/1999/xlink" width="200" height="200"><defs><style type="text/css"></style></defs><path d="M766.4 244.8s-104-131.2-22.4-108.8c22.4 6.4 27.2 57.6 62.4 14.4 25.6-35.2 36.8-41.6 64-6.4 27.2 36.8 84.8-56 65.6 14.4-19.2 68.8-60.8 96-60.8 96M376 249.6c-35.2 36.8-40 124.8 0 97.6 30.4-20.8 57.6-41.6 75.2 19.2 17.6 62.4 43.2 40 70.4 6.4 27.2-33.6 33.6-19.2 41.6 24s43.2 12.8 49.6-22.4c36.8-176-132.8-235.2-236.8-124.8z" fill="#FFD2B0" p-id="7043"></path><path d="M200 921.6c-19.2 0-36.8-1.6-54.4-6.4-43.2-12.8-76.8-40-99.2-80-32-68.8-32-161.6 43.2-201.6 1.6 0 43.2-19.2 78.4-49.6 59.2-49.6 84.8-83.2 110.4-144 17.6-46.4 43.2-88 62.4-115.2 4.8-8 14.4-9.6 22.4-3.2 8 4.8 9.6 14.4 3.2 22.4-17.6 25.6-43.2 64-59.2 108.8-27.2 65.6-57.6 102.4-120 156.8-38.4 33.6-83.2 52.8-84.8 52.8-56 30.4-56 104-30.4 158.4 17.6 32 44.8 54.4 80 64 56 16 131.2 0 212.8-46.4 140.8-80 188.8-187.2 204.8-264 16-78.4 20.8-129.6 16-174.4 0-9.6 6.4-16 14.4-17.6 8 0 16 6.4 17.6 14.4 4.8 60.8-4.8 124.8-17.6 184-16 83.2-68.8 200-220.8 286.4-62.4 36.8-124.8 54.4-179.2 54.4z" fill="#4C4C4C" p-id="7044"></path><path d="M564.8 195.2c17.6-57.6-16-97.6-35.2-112-8-4.8-17.6-3.2-22.4 4.8-4.8 8-3.2 17.6 4.8 22.4 1.6 1.6 36.8 25.6 24 72-57.6-16-123.2 4.8-171.2 56-30.4 32-41.6 97.6-22.4 120 4.8 4.8 19.2 17.6 43.2 1.6l1.6-1.6c11.2-8 27.2-19.2 33.6-16 1.6 0 8 4.8 16 28.8 4.8 19.2 16 46.4 38.4 49.6 22.4 4.8 41.6-16 60.8-38.4 3.2-4.8 6.4-6.4 8-9.6 1.6 4.8 3.2 12.8 6.4 25.6 6.4 30.4 24 33.6 32 33.6 24 0 44.8-28.8 49.6-56 16-80-9.6-147.2-67.2-180.8z m35.2 176c-3.2 14.4-11.2 25.6-16 30.4 0-1.6-1.6-3.2-1.6-6.4-4.8-28.8-11.2-49.6-28.8-54.4h-6.4c-14.4 0-25.6 11.2-35.2 24-20.8 24-27.2 27.2-28.8 27.2 0 0-6.4-3.2-12.8-27.2-8-28.8-19.2-44.8-35.2-51.2-22.4-8-43.2 6.4-62.4 20.8l-4.8-1.6c-1.6 0-1.6 1.6-3.2 1.6-3.2-12.8 3.2-52.8 22.4-75.2 44.8-48 108.8-64 156.8-40 49.6 25.6 68.8 83.2 56 152zM875.2 270.4c-4.8 0-11.2-3.2-12.8-8-4.8-8-3.2-17.6 4.8-22.4 0 0 35.2-24 52.8-83.2-17.6 9.6-43.2 20.8-60.8-4.8-12.8-17.6-17.6-17.6-17.6-17.6-1.6 0-8 4.8-24 22.4-8 9.6-20.8 22.4-36.8 22.4-16 0-25.6-12.8-32-22.4-3.2-3.2-8-9.6-9.6-9.6-4.8-1.6-8-1.6-9.6-1.6 1.6 14.4 24 52.8 49.6 86.4 4.8 6.4 4.8 17.6-3.2 22.4s-17.6 4.8-22.4-3.2C720 208 683.2 152 700.8 126.4c8-12.8 24-16 46.4-9.6 12.8 3.2 20.8 14.4 27.2 22.4 1.6 3.2 6.4 8 8 9.6 0 0 4.8-3.2 11.2-11.2 16-19.2 30.4-35.2 48-35.2h1.6c17.6 0 30.4 14.4 41.6 30.4 3.2 3.2 8 3.2 27.2-9.6 11.2-8 24-16 36.8-6.4 12.8 9.6 8 25.6 3.2 43.2-20.8 73.6-65.6 104-67.2 105.6-3.2 4.8-6.4 4.8-9.6 4.8z" fill="#4C4C4C" p-id="7045"></path><path d="M769.6 465.6H768l-68.8-8c-8-1.6-14.4-9.6-14.4-17.6 1.6-8 9.6-14.4 17.6-14.4l68.8 8c8 1.6 14.4 9.6 14.4 17.6-1.6 8-8 14.4-16 14.4zM926.4 614.4h-1.6l-86.4-11.2c-8-1.6-14.4-9.6-14.4-17.6s9.6-14.4 17.6-14.4l86.4 11.2c8 1.6 14.4 9.6 14.4 17.6-1.6 8-9.6 14.4-16 14.4zM849.6 923.2c-1.6 0-3.2 0-4.8-1.6l-40-12.8c-8-3.2-12.8-11.2-9.6-20.8 3.2-8 11.2-12.8 20.8-9.6l40 12.8c8 3.2 12.8 11.2 9.6 20.8-3.2 6.4-9.6 11.2-16 11.2zM732.8 771.2c-8 0-16-6.4-16-16s6.4-16 16-16h59.2c9.6 0 16 6.4 16 16s-6.4 16-16 16h-59.2zM899.2 350.4c-8 0-16-6.4-16-14.4 0-9.6 6.4-16 14.4-17.6l44.8-3.2c8 0 16 6.4 17.6 14.4 0 9.6-6.4 16-14.4 17.6l-46.4 3.2c1.6 0 0 0 0 0z" fill="#FFD2B0" p-id="7046"></path><path d="M806.4 974.4h-3.2c-30.4-1.6-57.6-22.4-64-51.2-54.4-240-73.6-424-62.4-580.8 1.6-25.6 8-60.8 38.4-84.8 36.8-27.2 99.2-32 200-12.8 16 3.2 28.8 12.8 36.8 27.2 59.2 97.6-28.8 460.8-89.6 659.2-6.4 27.2-28.8 43.2-56 43.2z m4.8-708.8c-33.6 0-57.6 6.4-73.6 17.6-16 11.2-24 30.4-25.6 60.8-12.8 152 6.4 332.8 60.8 569.6 4.8 17.6 20.8 25.6 33.6 27.2 6.4 0 22.4-1.6 28.8-19.2 80-259.2 137.6-560 92.8-633.6-6.4-9.6-11.2-12.8-16-12.8-41.6-4.8-73.6-9.6-100.8-9.6zM849.6 928z" fill="#4C4C4C" p-id="7047"></path></svg>