<?xml version="1.0" standalone="no"?><!DOCTYPE svg PUBLIC "-//W3C//DTD SVG 1.1//EN" "http://www.w3.org/Graphics/SVG/1.1/DTD/svg11.dtd"><svg t="1636300332263" class="icon" viewBox="0 0 1024 1024" version="1.1" xmlns="http://www.w3.org/2000/svg" p-id="2363" xmlns:xlink="http://www.w3.org/1999/xlink" width="200" height="200"><defs><style type="text/css"></style></defs><path d="M976 671.36l1.066667-2.986667c4.906667-14.293333 8.96-29.013333 12.373333-42.666666v-2.773334c3.413333-14.933333 5.973333-29.866667 8.106667-44.8V576A490.666667 490.666667 0 0 0 514.986667 21.333333a21.333333 21.333333 0 0 0-4.266667 0 492.373333 492.373333 0 0 0-126.72 16.853334A490.666667 490.666667 0 0 0 52.906667 684.16q4.053333 10.88 8.746666 21.333333c2.133333 5.12 4.693333 10.24 7.04 15.36l3.2 6.613334c2.773333 5.973333 5.973333 11.733333 8.96 17.493333l1.92 3.413333q5.333333 9.6 10.88 18.773334a482.986667 482.986667 0 0 0 71.466667 90.453333l4.48 4.48 12.586667 11.733333 7.466666 6.613334 11.52 9.813333 10.026667 7.893333 10.24 7.893334 13.226667 11.306666 8.32 5.76c7.466667 4.906667 15.146667 9.6 23.04 14.08s18.346667 10.24 27.733333 14.72l14.08 6.4 13.866667 6.186667 17.92 7.04 10.666666 4.053333 19.2 6.186667 10.453334 3.2 18.56 4.693333 11.946666 2.773334 16.64 3.2 14.72 2.346666 13.866667 1.706667 18.346667 1.706667H513.706667a490.666667 490.666667 0 0 0 207.786666-47.786667l3.2-1.493333c7.04-3.413333 14.08-7.253333 21.333334-11.093334l7.68-4.053333 16-9.813333 11.733333-7.253334 11.52-8.106666c4.906667-3.413333 10.026667-7.04 14.933333-10.666667l7.893334-6.4c5.76-4.693333 11.52-9.173333 17.28-14.08l5.333333-4.906667c6.186667-5.546667 12.373333-11.093333 18.346667-17.066666l4.053333-4.266667c6.186667-6.186667 12.16-12.586667 18.133333-19.2l4.266667-5.12c5.546667-6.4 11.093333-13.013333 16.426667-19.84l6.826666-9.386667c4.053333-5.546667 8.32-11.093333 12.16-17.066666q9.173333-13.653333 17.493334-28.16c7.893333-13.653333 14.933333-27.52 21.333333-42.666667v-2.133333c8.106667-11.093333 13.653333-25.173333 18.56-39.466667z m-23.68-80c-1.28 7.253333-2.346667 14.72-4.053333 21.333333s-4.266667 15.36-6.4 23.04-3.413333 12.586667-5.333334 18.773334-6.826667 17.92-10.453333 26.88c-1.92 4.693333-3.626667 9.6-5.546667 14.08-6.186667 13.44-12.8 26.666667-21.333333 39.893333s-14.293333 23.04-21.333333 33.92l-6.186667 8.746667c-7.466667 10.026667-15.146667 19.626667-23.253333 28.8l-3.413334 3.84c-5.973333 6.826667-12.586667 13.013333-18.773333 19.2 21.333333-161.28-51.626667-314.666667-106.666667-429.866667a1069.013333 1069.013333 0 0 1-44.16-99.84c146.986667 44.8 257.92 147.84 280.106667 272.213333-0.853333 6.4-2.133333 12.586667-3.2 18.986667zM740.693333 896q-13.226667 7.893333-27.093333 14.72l-6.826667 3.413333c-11.093333 5.333333-22.4 10.026667-33.92 14.506667l-10.453333 3.84q-13.653333 4.906667-27.733333 8.96l-9.6 2.773333q-17.706667 4.693333-35.84 7.68l-10.666667 1.706667q-14.08 2.133333-28.373333 3.413333h-19.626667c-48.64-333.013333-56.746667-546.133333-49.706667-680.533333 9.813333 0.853333 20.48 0.853333 31.146667 0.853333a577.28 577.28 0 0 1 114.986667 11.733334 730.453333 730.453333 0 0 0 53.973333 130.346666c58.666667 122.24 139.093333 289.493333 93.226667 455.04-7.68 5.546667-15.36 10.88-23.253334 15.786667z m-288 59.733333c-12.586667-1.706667-25.173333-3.84-37.76-6.613333l-6.4-1.706667c-10.666667-2.56-21.333333-5.546667-31.786666-8.746666l-9.6-2.986667q-17.706667-5.973333-34.986667-13.653333l-8.106667-4.693334c-12.16-5.546667-24.32-11.52-36.053333-18.346666s-24.32-14.933333-35.84-23.04l-3.84-1.28q-16.64-12.16-32-25.6l-2.986667-3.626667-1.28-1.28c-44.373333-165.973333 25.386667-320 76.8-434.133333a934.826667 934.826667 0 0 0 42.666667-102.826667 551.466667 551.466667 0 0 1 106.666667-24.746667c-6.613333 139.093333 2.773333 352 49.92 676.48-8.96 0-17.92 0-26.88-1.92zM130.346667 746.666667c-7.253333-11.733333-13.653333-23.893333-19.84-36.053334l-1.92-4.053333q-8.32-17.493333-15.36-35.626667l-2.346667-6.826666c-3.2-8.96-5.973333-17.92-8.533333-26.88-1.28-4.693333-2.773333-9.173333-3.84-13.866667-2.346667-9.173333-4.266667-18.56-5.973334-27.733333s-2.346667-13.653333-3.413333-21.333334v-3.626666c18.986667-103.253333 98.56-190.72 208.853333-242.56-7.893333 19.626667-17.493333 41.173333-27.946666 64-47.36 104.106667-108.8 240.853333-92.373334 393.6A446.293333 446.293333 0 0 1 130.56 746.666667zM522.453333 64A443.733333 443.733333 0 0 1 704 106.666667a184.106667 184.106667 0 0 0-81.066667 137.6A616.746667 616.746667 0 0 0 512 234.666667h-28.373333c9.6-111.146667 30.08-156.16 38.826666-170.666667zM955.733333 455.68c-57.173333-95.146667-162.56-168.32-290.346666-201.386667-1.706667-69.76 57.813333-110.293333 81.28-123.52a448 448 0 0 1 209.066666 324.906667zM396.16 79.36a452.906667 452.906667 0 0 1 77.866667-13.44 584.533333 584.533333 0 0 0-33.92 173.44 599.466667 599.466667 0 0 0-100.48 20.266667 135.466667 135.466667 0 0 0-62.933334-128 449.493333 449.493333 0 0 1 119.466667-52.266667zM124.16 288a448 448 0 0 1 112.853333-129.706667c20.266667 7.68 69.76 34.773333 58.88 110.72 0 1.92 0 3.84-1.066666 5.76a451.413333 451.413333 0 0 0-227.413334 182.186667 445.44 445.44 0 0 1 56.746667-168.96z" p-id="2364"></path></svg>