<?xml version="1.0" standalone="no"?><!DOCTYPE svg PUBLIC "-//W3C//DTD SVG 1.1//EN" "http://www.w3.org/Graphics/SVG/1.1/DTD/svg11.dtd"><svg t="1636301068615" class="icon" viewBox="0 0 1024 1024" version="1.1" xmlns="http://www.w3.org/2000/svg" p-id="7863" xmlns:xlink="http://www.w3.org/1999/xlink" width="200" height="200"><defs><style type="text/css"></style></defs><path d="M820.8 497.6c0 76.8-56 166.4-131.2 166.4s-140.8-88-140.8-163.2" fill="#FFD2B0" p-id="7864"></path><path d="M580.8 937.6a108.8 40 0 1 0 217.6 0 108.8 40 0 1 0-217.6 0Z" fill="#4C4C4C" p-id="7865"></path><path d="M299.2 104c-32 0-67.2-8-67.2-33.6s35.2-33.6 67.2-33.6 67.2 8 67.2 33.6-35.2 33.6-67.2 33.6zM336 76.8z m-54.4-6.4c9.6 1.6 24 1.6 35.2 0-11.2-1.6-25.6-1.6-35.2 0z" fill="#4C4C4C" p-id="7866"></path><path d="M248 435.2c-9.6 0-16-6.4-16-16V70.4c0-9.6 6.4-16 16-16s16 6.4 16 16v348.8c0 9.6-8 16-16 16z" fill="#4C4C4C" p-id="7867"></path><path d="M310.4 987.2h-24c-51.2 0-96 0-123.2-27.2-14.4-14.4-20.8-35.2-20.8-62.4V544c0-54.4 62.4-115.2 96-137.6 6.4-4.8 17.6-3.2 22.4 3.2 4.8 6.4 3.2 17.6-3.2 22.4-32 22.4-83.2 73.6-83.2 112v353.6c0 17.6 3.2 30.4 12.8 38.4 17.6 17.6 56 17.6 100.8 17.6h16c44.8 0 83.2 0 100.8-17.6 8-8 12.8-20.8 12.8-38.4V544c0-38.4-43.2-88-75.2-110.4-6.4-4.8-8-16-3.2-22.4 4.8-6.4 16-8 22.4-3.2 35.2 25.6 88 83.2 88 136v353.6c0 27.2-6.4 48-20.8 62.4-27.2 25.6-68.8 27.2-118.4 27.2z" fill="#4C4C4C" p-id="7868"></path><path d="M350.4 435.2c-9.6 0-16-6.4-16-16V70.4c0-9.6 6.4-16 16-16s16 6.4 16 16v348.8c0 9.6-6.4 16-16 16zM689.6 532.8c-72 0-150.4-19.2-150.4-60.8s78.4-60.8 150.4-60.8 150.4 19.2 150.4 60.8-78.4 60.8-150.4 60.8z m0-89.6c-75.2 0-116.8 20.8-118.4 28.8 1.6 8 44.8 28.8 118.4 28.8 73.6 0 116.8-20.8 118.4-28.8-1.6-9.6-44.8-28.8-118.4-28.8z m118.4 28.8z" fill="#4C4C4C" p-id="7869"></path><path d="M689.6 683.2c-83.2 0-150.4-88-150.4-196.8 0-9.6 6.4-16 16-16s16 6.4 16 16c0 91.2 52.8 164.8 118.4 164.8s118.4-73.6 118.4-164.8c0-9.6 6.4-16 16-16s16 6.4 16 16c0 108.8-67.2 196.8-150.4 196.8z" fill="#4C4C4C" p-id="7870"></path><path d="M689.6 940.8c-9.6 0-16-6.4-16-16V680c0-9.6 6.4-16 16-16s16 6.4 16 16v244.8c0 9.6-6.4 16-16 16zM304 438.4c-19.2 0-41.6-3.2-56-8-8-3.2-12.8-11.2-9.6-20.8 3.2-8 11.2-12.8 20.8-9.6 11.2 3.2 30.4 6.4 46.4 6.4 12.8 0 27.2-1.6 38.4-4.8 8-3.2 17.6 1.6 19.2 11.2 3.2 8-1.6 17.6-11.2 19.2-14.4 4.8-32 6.4-48 6.4z" fill="#4C4C4C" p-id="7871"></path><path d="M264 60.8a35.2 12.8 0 1 0 70.4 0 35.2 12.8 0 1 0-70.4 0Z" fill="#FFD2B0" p-id="7872"></path></svg>