<?xml version="1.0" standalone="no"?><!DOCTYPE svg PUBLIC "-//W3C//DTD SVG 1.1//EN" "http://www.w3.org/Graphics/SVG/1.1/DTD/svg11.dtd"><svg t="1636301159930" class="icon" viewBox="0 0 1024 1024" version="1.1" xmlns="http://www.w3.org/2000/svg" p-id="10532" xmlns:xlink="http://www.w3.org/1999/xlink" width="200" height="200"><defs><style type="text/css"></style></defs><path d="M539.4432 143.36C362.0864 143.36 216.4736 278.17984 199.8848 450.60096c11.07968-45.69088 32.39936-88.22784 63.42656-123.53536 64.90112-73.91232 156.0576-118.1696 250.18368-121.2416 81.28512-2.56 157.16352 26.23488 212.48 81.32608 93.88032 93.55264 92.81536 251.8016-2.2528 352.768-37.4784 39.77216-94.26944 63.3856-155.60704 64.512-59.43296 1.41312-114.60608-18.78016-151.47008-54.94784-35.26656-34.52928-55.56224-83.12832-55.84896-133.3248-0.2048-49.13152 18.3296-94.90432 52.20352-128.7168a155.32032 155.32032 0 0 1 109.1584-44.81024h0.53248a153.62048 153.62048 0 0 1 109.58848 46.1824c48.70144 49.27488 47.77984 129.67936-1.9456 179.2a105.32864 105.32864 0 0 1-148.66432 0 87.81824 87.81824 0 0 1-25.92768-62.5664c0-23.71584 9.15456-45.8752 25.92768-62.5664a23.2448 23.2448 0 0 1 32.64512 0c9.05216 8.97024 9.05216 23.552 0 32.50176a42.47552 42.47552 0 0 0 0 60.12928 59.24864 59.24864 0 0 0 83.43552 0c31.3344-31.27296 32.09216-83.6608 1.69984-114.54464a108.27776 108.27776 0 0 0-76.86144-32.29696h-0.38912a108.99456 108.99456 0 0 0-76.51328 31.27296c-25.10848 25.02656-38.83008 59.16672-38.7072 96.11264 0.18432 37.82656 15.50336 74.58816 42.00448 100.49536 28.0576 27.58656 70.98368 43.25376 118.1696 41.984 49.07008-1.00352 93.92128-19.29216 122.88-50.0736 78.21312-83.08736 79.70816-212.66432 3.29728-288.70656-46.26432-46.1824-109.64992-70.2464-178.3808-67.95264-81.28512 2.72384-160.37888 41.12384-216.86272 105.5744-55.99232 63.73376-74.91584 151.51104-51.712 240.64 7.00416 27.07456 21.504 62.0544 44.8512 96.41984l-180.71552 179.97824a27.68896 27.68896 0 0 0 0 39.1168c5.46816 5.48864 12.47232 8.06912 19.61984 8.06912 7.04512 0 14.11072-2.58048 19.49696-8.04864l176.7424-176.18944c47.104 48.10752 115.99872 86.56896 213.05344 86.56896C727.83872 823.9104 880.64 671.49824 880.64 483.61472 880.64 295.7312 727.8592 143.36 539.4432 143.36z" p-id="10533"></path></svg>