<?xml version="1.0" standalone="no"?><!DOCTYPE svg PUBLIC "-//W3C//DTD SVG 1.1//EN" "http://www.w3.org/Graphics/SVG/1.1/DTD/svg11.dtd"><svg t="1636292150813" class="icon" viewBox="0 0 1024 1024" version="1.1" xmlns="http://www.w3.org/2000/svg" p-id="7316" xmlns:xlink="http://www.w3.org/1999/xlink" width="200" height="200"><defs><style type="text/css"></style></defs><path d="M768 385.757867c-56.797867 0-57.992533-19.421867-102.4-19.421867-30.0032 0-25.6 19.421867-25.6 19.421867L640 702.976l-0.119467 0c-1.297067 43.6224-17.2032 90.624-108.680533 90.624-45.943467 0-83.2-31.880533-83.2-71.202133 0-39.3216 37.256533-71.2192 83.2-71.2192 11.537067 0 47.701333 0 70.4 0L601.6 249.821867c0 0-1.826133-19.421867 25.6-19.421867 67.652267 12.9536 166.4 25.4976 166.4 45.312 0 19.831467 0 90.624 0 90.624S793.6 385.757867 768 385.757867zM230.4 544.750933l294.4 0 0 39.287467L230.4 584.0384 230.4 544.750933zM230.4 439.9616l294.4 0 0 39.287467L230.4 479.249067 230.4 439.9616zM230.4 335.172267l294.4 0 0 39.287467L230.4 374.459733 230.4 335.172267z" p-id="7317"></path></svg>