<?xml version="1.0" standalone="no"?><!DOCTYPE svg PUBLIC "-//W3C//DTD SVG 1.1//EN" "http://www.w3.org/Graphics/SVG/1.1/DTD/svg11.dtd"><svg t="1636301413933" class="icon" viewBox="0 0 1024 1024" version="1.1" xmlns="http://www.w3.org/2000/svg" p-id="12703" xmlns:xlink="http://www.w3.org/1999/xlink" width="200" height="200"><defs><style type="text/css"></style></defs><path d="M507.865727 411.048019c58.826403-0.01535 117.647689-0.133034 176.474092 0.025583 40.324509 0.10745 50.716474 10.473832 46.336601 51.043941-7.112177 65.948813-15.96914 131.713426-24.135352 197.549673-12.571668 101.356198-25.823854 202.63053-37.489872 304.089062-5.070624 44.110848-8.053645 48.388388-53.080378 48.403738-75.875161 0.025583-151.755439-0.506551-227.620367 0.29165-24.856803 0.26095-36.374437-7.869445-39.562125-34.3994-20.824864-173.204537-43.210313-346.21464-65.058512-519.296377-4.211023-33.381182 7.895028-47.370169 42.550262-47.58507C386.805217 410.787068 447.335472 411.063369 507.865727 411.048019zM678.742178 669.839165c3.504922-18.962394 6.656793-31.958747 8.207145-45.144416 6.063259-51.478859 11.328317-103.049818 17.468326-154.518443 4.124039-34.593834 4.30824-35.120851-29.103643-35.161785-111.563963-0.133034-223.127927-0.133034-334.69189 0-34.056583 0.040933-35.392035 2.20017-30.914945 37.454055 9.102563 71.643672 19.248928 143.190126 26.468555 215.028232 6.963794 69.325818 58.959436 96.173008 116.767621 57.03045 28.136591-19.049378 54.119063-41.265977 81.242552-61.824774C577.483196 649.873902 622.509929 629.391855 678.742178 669.839165zM351.418298 771.118613c-0.931235 10.264048-2.670904 16.731525-1.903403 22.886884 6.881927 54.89168 15.825873 109.578694 20.712297 164.634108 2.36902 26.698806 14.214121 31.447079 37.638255 31.017279 66.486064-1.222885 133.002828-0.383751 199.509359-0.450267 33.048598-0.0307 34.752451-2.24622 38.774157-35.760436 8.92348-74.355509 19.228462-148.562634 26.893239-223.040943 1.253585-12.203268-4.850607-28.346375-13.149853-37.715005-19.975496-22.559416-47.180852-27.190006-74.452726-11.36925-28.571509 16.578024-55.009364 37.044721-81.452336 57.035567C459.011722 772.372198 414.865058 807.810283 351.418298 771.118613z" p-id="12704"></path><path d="M584.47769 247.099545c28.499875 0 52.13891 0.578184 75.737011-0.16885 21.459331-0.680518 34.870134 6.61586 34.737101 30.065577-0.086983 15.636556 8.949063 19.699196 22.902234 20.773697 38.405756 2.962554 56.9537 32.690431 39.377924 67.222865-4.958057 9.742148-22.595233 17.95441-34.675701 18.32281-60.427922 1.857353-120.947944 0.885185-181.432149 0.890301-81.78492 0.005117-163.56984 0.143267-245.349643-0.097217-30.280478-0.086983-36.747954-6.58516-37.397771-35.131085-0.921001-40.344976 5.464608-50.506691 35.448319-50.956958 18.982861-0.281417 31.360096-4.052406 30.653995-26.652756-0.573068-18.343277 10.658032-24.585619 28.228691-24.437236 58.780353 0.486084 117.586289-0.859601 176.330825 0.639584 22.69245 0.578184 31.298696-8.442512 36.057203-29.200859 14.434138-62.986259 30.106511-125.706451 46.418468-188.237326 2.149003-8.232729 10.831999-14.756488 16.491041-22.068216 1.964803 9.256064 7.265677 19.274512 5.362275 27.655624-13.56942 59.706471-28.684075 119.054774-43.102863 178.571928C588.115645 223.143277 587.056493 232.266307 584.47769 247.099545zM507.103343 360.889262c67.253565 0 134.512247-0.07675 201.765812 0.0614 14.275521 0.0307 27.952391 0.813551 27.814241-19.878279-0.133034-20.108529-13.073102-20.778814-27.732374-20.241563-22.66175 0.834018-37.382421-6.441893-39.244891-32.582981-0.440034-6.221876-12.668885-16.537091-19.576395-16.618958-93.635137-1.115435-187.285624-1.115435-280.920762-0.0307-7.04566 0.081867-19.422895 9.992865-19.995963 16.194274-2.394604 25.803388-17.504142 33.258382-39.725858 32.936032-14.966272-0.220017-27.363973 0.905651-27.271873 20.778814 0.0921 20.932314 14.275521 19.422895 28.228691 19.412662C375.998801 360.863679 441.548513 360.894379 507.103343 360.889262z" p-id="12705"></path></svg>